# xmcd
# Track frame offsets:
# 150
# 13225
# 29319
# 48202
# 62219
# 75752
# 91745
# 106991
# 119825
# 135986
# 148987
# 164142
# 177593
# 191689
#
# Disc length: 2922 seconds
# Revision: 0
# Processed by: cddbd v1.4PL0 Copyright (c) Steve Scherf et al.
# Submitted via: VisiTrax 2.9.5.180 - For more info visit www.synapsa.com
#
DISCID=c30b680e
DTITLE=Various Artist - Mr Music Country 7-03
DYEAR=2003
DGENRE=
TTITLE0=Jamie Richards - Red River Runaround
TTITLE1=Shane Worley - Souped Up Purple Truck
TTITLE2=Jenny Kerr - Tijuana Waltz
TTITLE3=Jason Allen - Next In Line
TTITLE4=Billy D. Hunter - You Asked Me To
TTITLE5=Chester Lester - I Know Fool Well
TTITLE6=Pauline Reese - Don't Leave Me Standing Here
TTITLE7=Rayburn Anthony - Making Love And Making Out
TTITLE8=Egil Skjelnes, vocal Cato Sanden - Half Hearted Love
TTITLE9=Barb Marchulk - Don't Say It
TTITLE10=Bobby G. Rice - Home Movies
TTITLE11=Jacob Lyda - Photograph
TTITLE12=H. Lammers Meyer and Sandy Posey - Games People Play
TTITLE13=Queen Bee and The Zydeco Amigos - Across The Borderline
EXTD=
EXTT0=
EXTT1=
EXTT2=
EXTT3=
EXTT4=
EXTT5=
EXTT6=
EXTT7=
EXTT8=
EXTT9=
EXTT10=
EXTT11=
EXTT12=
EXTT13=
PLAYORDER=
